<svg id="Capa_1" enable-background="new 0 0 512 512" height="512" viewBox="0 0 512 512" width="512" xmlns="http://www.w3.org/2000/svg"><g><g><path d="m88.582 90.712v340.031l214.89 60v-400.031z" fill="#b9f0ff"/><path d="m255.999 468.591c-71.744-59.034-108.927-149.532-98.827-242.617h-125.751l-23.852 24.105c-.995 42.745 8.798 84.364 28.549 121.772l96.007 99.62c36.466 21.01 78.766 33.031 123.873 33.032l9.998-16.67z" fill="#7ce3ff"/></g><g><path d="m157.172 34.759v191.214c7.56-7.301 18.788-9.345 28.442-5.118l19.62 7.031c5.997 2.625 10.597 7.501 13.395 13.42 3.268 6.914 10.457 11.611 18.698 11.223 10.289-.485 18.672-7.196 18.672-20.154h47.473v-197.616z" fill="#30cd9c"/><path d="m157.172 225.973c7.961-73.369 44.764-138.078 98.827-182.571l7.997-18.447-7.997-17.458c-1.188 0-2.376.028-3.56.045-133.632 1.875-241.756 109.209-244.87 242.537l57.358 57.345c9.836 9.836 9.836 25.783 0 35.618l-28.809 28.809c21.956 41.584 55.348 76.194 96.007 99.62 38.094-39.615 37.671-102.664-1.385-141.72-12.288-12.288-23.154-20.43-23.155-38.686 0-9.946 3.951-19.482 10.982-26.514 48.707-48.706 36.198-36.21 38.605-38.578z" fill="#0caf7b"/></g><g><path d="m255.999 7.5v35.902h47.295v-31.371c-15.414-2.983-31.045-4.531-47.295-4.531z" fill="#55dafe"/><path d="m303.294 12.031c-16.872 8.833-32.71 19.369-47.295 31.372v212.617h209.861v-132.96c-36.031-56.678-94.376-97.834-162.566-111.029z" fill="#7ce3ff"/><path d="m465.86 123.06c-34.554 1.721-62.235 14.92-87.553 37.374-34.476 30.575-79.248 43.294-122.308 37.979v253.731h122.487l102.799-91.347c14.883-31.864 23.215-67.375 23.215-104.797 0-48.864-14.185-94.472-38.64-132.94z" fill="#55dafe"/><path d="m255.999 504.5c10.979 0 21.781-.756 32.386-2.143 5.007-.655 9.966-1.465 14.876-2.415-16.859-8.829-32.686-19.357-47.262-31.351z" fill="#1cbbea"/><path d="m481.286 360.797c-5.129-3.824-10.032-8.044-14.623-12.728-53.859-54.667-142.032-54.431-195.535.146-4.774 4.846-9.837 9.26-15.128 13.252v107.123c14.576 11.994 30.403 22.522 47.262 31.351 79.044-15.282 144.849-68.113 178.024-139.144z" fill="#2ed0fc"/></g><g><g><path d="m285.944 122.183c-.009-18.509-13.419-20.242-29.96-20.233-16.54.008-29.949 1.754-29.939 20.263.009 18.509 13.426 33.506 29.966 33.498 16.541-.008 29.942-15.019 29.933-33.528z" fill="#4c5699"/></g></g><g><path d="m321.684 112.829h.015c4.135 0 7.492-3.349 7.5-7.486l.022-12c.009-4.142-3.343-7.506-7.485-7.514-.005 0-.009 0-.015 0-4.135 0-7.492 3.349-7.5 7.486l-.023 12c-.008 4.142 3.344 7.506 7.486 7.514z"/><path d="m171.999 111.668c4.134 0 7.49-3.347 7.5-7.483.008-3.614 2.95-6.548 6.562-6.548h.015c3.628.008 6.556 2.949 6.548 6.577-.009 4.142 3.341 7.507 7.483 7.517h.017c4.134 0 7.49-3.347 7.5-7.483.026-11.917-9.596-21.583-21.515-21.61-.017 0-.032 0-.049 0-11.881 0-21.535 9.597-21.561 21.515-.009 4.142 3.341 7.507 7.483 7.517.006-.002.011-.002.017-.002z"/><path d="m256.024 0c-59.963 0-116.251 20.441-161.757 57.562-3.209 2.618-3.689 7.343-1.071 10.552 2.622 3.215 7.347 3.686 10.552 1.071 40.897-33.361 92.03-52.399 144.736-54.057v79.483c-12.839.724-29.951 4.778-29.939 27.605.01 19.796 12.891 36.354 29.954 40.167v69.99c0 10.545-7.221 12.46-11.525 12.663-4.923.227-9.462-2.49-11.563-6.937-4.171-8.824-11.606-15.116-17.646-17.275l-19.393-6.949c-12.062-5.168-26.54-3.088-37.04 7.303l-38.068 38.068c-8.499 8.5-13.179 19.8-13.179 31.817.001 19.271 10.277 29.275 21.157 39.867 1.369 1.333 2.772 2.699 4.195 4.122 34.406 34.407 36.283 90.044 5.277 126.752-35.488-21.685-64.957-52.289-85.276-88.669l24.791-24.791c12.744-12.744 12.744-33.48 0-46.227l-55.049-55.034c2.169-59.341 25.945-115.384 67.18-158.2 2.873-2.983 2.784-7.731-.2-10.605-2.984-2.873-7.732-2.784-10.605.2-45.951 47.716-71.555 110.942-71.555 177.513 0 141.064 114.07 256.007 255.999 256.009h.057c58.28 0 116.062-20.508 161.632-57.712 3.209-2.619 3.687-7.344 1.066-10.553-2.619-3.21-7.344-3.687-10.553-1.066-40.97 33.449-92.093 52.537-144.702 54.199v-131.75c4.556-3.628 8.917-7.523 12.984-11.652 50.585-51.601 133.915-51.819 184.823-.146 3.295 3.361 6.864 6.593 10.631 9.672-10.838 21.774-25.04 41.999-42.351 59.974-2.873 2.983-2.784 7.73.2 10.604 2.985 2.875 7.735 2.782 10.604-.2 46.179-47.948 71.61-110.939 71.61-177.37 0-141.142-114.839-256-255.976-256zm-196.4 337.739-21.41 21.41c-13.196-27.75-21.243-58.402-22.894-90.716l44.304 44.293c6.895 6.897 6.895 18.118 0 25.013zm188.875 159.137c-37.631-1.156-73.111-10.985-104.52-27.545 34.144-42.461 31.897-105.05-7.936-144.884-1.472-1.471-2.923-2.885-4.338-4.263-10.008-9.743-16.62-16.179-16.62-29.119 0-8.012 3.12-15.545 8.786-21.211 32.991-32.993 37.125-37.129 38.125-38.124 6.813-6.091 14.125-6.843 20.61-4.005.371.164 19.437 6.985 19.834 7.127 3.98 1.81 7.315 5.231 9.409 9.659 6.581 13.922 22.971 19.217 36.65 12.978zm14.985-481.749c77.976 2.391 146.749 41.993 189.107 101.618-29.12 3.908-54.584 16.192-79.262 38.077-30.125 26.718-69.826 39.938-109.831 36.8v-29.238c17.073-3.817 29.955-20.396 29.945-40.205-.01-18.978-11.447-26.551-29.959-27.553zm-7.476 133.085c-.004 0-.006 0-.009 0-12.374 0-22.446-11.663-22.454-26.002-.005-9.721 3.09-12.75 22.443-12.759h.12c18.407 0 22.331 2.65 22.336 12.737.007 14.342-10.058 26.017-22.436 26.024zm215.997 194.594c-56.8-57.652-149.764-57.443-206.22.146-.746.757-1.518 1.495-2.286 2.236v-138.529c44.894 3.193 87.785-12.235 119.784-40.614 24.358-21.602 49.442-32.853 78.598-35.204 22.273 36.503 35.119 79.358 35.119 125.159 0 32.315-6.41 63.76-18.589 92.841-2.236-1.954-4.379-3.968-6.406-6.035z"/></g></g></svg>